
<svg width="64" height="64" viewBox="0 0 64 64" fill="none" xmlns="http://www.w3.org/2000/svg">
	<path d="M31.2308 32L15.875 52.8781H11H6.75L21.7692 32L6.625 10.8719H11.3558H16L26.5 25.4L36.75 11.125H41.4808H46.2115L31.2308 32Z" fill="#FFA726"/>
	<path d="M46.0005 10H37.0005C36.6775 10 36.3745 10.156 36.1875 10.419L26.5005 23.979L16.8135 10.418C16.6265 10.156 16.3235 10 16.0005 10H7.00053C6.62553 10 6.28253 10.209 6.11053 10.542C5.93953 10.876 5.96853 11.276 6.18653 11.581L20.7715 32L6.18753 52.419C5.96953 52.724 5.94053 53.124 6.11153 53.458C6.28253 53.791 6.62553 54 7.00053 54H16.0005C16.3235 54 16.6265 53.844 16.8135 53.581L46.8135 11.581C47.0315 11.276 47.0605 10.876 46.8895 10.542C46.7185 10.209 46.3755 10 46.0005 10ZM37.5155 12H44.0575L15.4855 52H8.94352L22.8135 32.581C23.0625 32.233 23.0625 31.767 22.8135 31.419L8.94352 12H15.4855L25.6865 26.281C26.0615 26.806 26.9385 26.806 27.3135 26.281L37.5155 12Z" fill="#FFA726"/>
	<path d="M21 53L25.3045 47H34V53H21Z" fill="#EF5350"/>
	<path d="M45.5 53L41.1955 47H32.5V53H45.5Z" fill="#EF5350"/>
	<path d="M34 46H25.3066C24.9823 46 24.6781 46.156 24.4903 46.419L20.1873 52.419C19.9684 52.724 19.9393 53.124 20.111 53.458C20.2826 53.791 20.627 54 21.0035 54H34C34.008 53.5 34 53.303 34 52.75V46.75C34 46.197 34 46.375 34 46ZM25.8226 48H34V52H22.9542L25.8226 48Z" fill="#EF5350"/>
	<path d="M34 46H41.6934C42.0177 46 42.3219 46.156 42.5097 46.419L46.8127 52.419C47.0316 52.724 47.0607 53.124 46.889 53.458C46.7174 53.791 46.373 54 45.9965 54H34C34 53.75 34 53.553 34 53V47C34 46.447 34 46.375 34 46ZM41.1774 48H34V52H44.0458L41.1774 48Z" fill="#EF5350"/>
	<path d="M51 53H55.5H60L45 32L60 11H55.5H51L36 32L51 53Z" fill="#FFEE58"/>
	<path d="M50.9996 54H59.9995C60.3745 54 60.7175 53.791 60.8895 53.458C61.0605 53.124 61.0315 52.724 60.8135 52.419L46.2286 32L60.8125 11.581C61.0305 11.276 61.0595 10.876 60.8885 10.542C60.7175 10.209 60.3745 10 59.9995 10H50.9996C50.6766 10 50.3736 10.156 50.1866 10.419L35.1867 31.419C34.9378 31.767 34.9378 32.233 35.1867 32.581L50.1866 53.581C50.3736 53.844 50.6766 54 50.9996 54ZM58.0565 52H51.5146L37.2287 32L51.5146 12H58.0565L44.1867 31.419C43.9377 31.767 43.9377 32.233 44.1867 32.581L58.0565 52Z" fill="#FFEE58"/>
</svg>
