
<svg width="256" height="256" viewBox="0 0 256 256" fill="none" xmlns="http://www.w3.org/2000/svg">
	<path d="M124.923 128L63.5 211.512H44H27L87.0769 128L26.5 43.4878H45.4231H64L106 101.6L147 44.5H165.923H184.846L124.923 128Z" fill="#FFA726"/>
	<path d="M184.002 40H148.002C146.71 40 145.498 40.624 144.75 41.676L106.002 95.916L67.2541 41.672C66.5061 40.624 65.2941 40 64.0021 40H28.0021C26.5021 40 25.1301 40.836 24.4421 42.168C23.7581 43.504 23.8741 45.104 24.7461 46.324L83.086 128L24.7501 209.676C23.8781 210.896 23.7621 212.496 24.4461 213.832C25.1301 215.164 26.5021 216 28.0021 216H64.0021C65.2941 216 66.5061 215.376 67.2541 214.324L187.254 46.324C188.126 45.104 188.242 43.504 187.558 42.168C186.874 40.836 185.502 40 184.002 40ZM150.062 48H176.23L61.9421 208H35.7741L91.254 130.324C92.25 128.932 92.25 127.068 91.254 125.676L35.7741 48H61.9421L102.746 105.124C104.246 107.224 107.754 107.224 109.254 105.124L150.062 48Z" fill="#FFA726"/>
	<path d="M84 212L101.218 188H136V212H84Z" fill="#EF5350"/>
	<path d="M182 212L164.782 188H130V212H182Z" fill="#EF5350"/>
	<path d="M136 184H101.226C99.9291 184 98.7123 184.624 97.9613 185.676L80.7491 209.676C79.8736 210.896 79.7572 212.496 80.4439 213.832C81.1306 215.164 82.5081 216 84.014 216H136C136.032 214 136 213.212 136 211V187C136 184.788 136 185.5 136 184ZM103.29 192H136V208H91.817L103.29 192Z" fill="#EF5350"/>
	<path d="M136 184H166.774C168.071 184 169.288 184.624 170.039 185.676L187.251 209.676C188.126 210.896 188.243 212.496 187.556 213.832C186.869 215.164 185.492 216 183.986 216H136C136 215 136 214.212 136 212V188C136 185.788 136 185.5 136 184ZM164.71 192H136V208H176.183L164.71 192Z" fill="#EF5350"/>
	<path d="M204 212H222H240L180 128L240 44H222H204L144 128L204 212Z" fill="#FFEE58"/>
	<path d="M203.998 216H239.998C241.498 216 242.87 215.164 243.558 213.832C244.242 212.496 244.126 210.896 243.254 209.676L184.915 128L243.25 46.324C244.122 45.104 244.238 43.504 243.554 42.168C242.87 40.836 241.498 40 239.998 40H203.998C202.706 40 201.494 40.624 200.746 41.676L140.747 125.676C139.751 127.068 139.751 128.932 140.747 130.324L200.746 214.324C201.494 215.376 202.706 216 203.998 216ZM232.226 208H206.058L148.915 128L206.058 48H232.226L176.747 125.676C175.751 127.068 175.751 128.932 176.747 130.324L232.226 208Z" fill="#FFEE58"/>
</svg>
